<?xml version="1.0" encoding="UTF-8"?>
<svg version="1.1" xmlns="http://www.w3.org/2000/svg" width="400" height="400">
<path d="M0 0 C2.52823752 2.0446661 4.75405187 4.05195842 6.87890625 6.51953125 C6.87890625 7.17953125 6.87890625 7.83953125 6.87890625 8.51953125 C7.53890625 8.51953125 8.19890625 8.51953125 8.87890625 8.51953125 C9.67577231 10.05851686 10.46613766 11.60086909 11.25390625 13.14453125 C11.69476563 14.00304687 12.135625 14.8615625 12.58984375 15.74609375 C15.12011445 21.19000949 16.02439053 24.96164974 15.44140625 30.95703125 C15.28124684 35.69926715 15.28124684 35.69926715 17.62890625 39.6015625 C19.19712308 40.73269187 20.79829274 41.81923202 22.42578125 42.86328125 C29.7216873 47.7891796 34.17312079 56.03097756 35.87890625 64.51953125 C37.26128286 77.34810718 36.05735178 88.29718729 28.12890625 98.83203125 C20.97147147 107.16476437 12.65962988 112.17131788 1.87890625 114.51953125 C0.46962209 114.61436904 -0.94328293 114.66258357 -2.35571289 114.6734314 C-3.61269234 114.68633209 -3.61269234 114.68633209 -4.89506531 114.69949341 C-5.80625626 114.70375336 -6.7174472 114.70801331 -7.65625 114.71240234 C-9.10587883 114.72466858 -9.10587883 114.72466858 -10.58479309 114.73718262 C-13.78438709 114.7619998 -16.98393669 114.77854699 -20.18359375 114.79296875 C-21.27923645 114.79829243 -22.37487915 114.8036161 -23.50372314 114.8091011 C-29.30765075 114.83582197 -35.11155698 114.85519675 -40.91552734 114.86962891 C-45.70511066 114.88294436 -50.49426555 114.91075496 -55.28369141 114.95166016 C-61.07850203 115.00114695 -66.87292534 115.0257702 -72.66793823 115.03285599 C-74.8686038 115.03954282 -77.0692616 115.05469729 -79.26980591 115.0787468 C-94.37157475 115.23432157 -106.61004521 114.93350676 -118.14453125 103.90234375 C-125.64583498 94.85927008 -127.92016937 84.97797407 -127.12109375 73.51953125 C-125.41058728 62.09523116 -119.47976286 54.66426977 -110.34375 47.89453125 C-107.30072293 46.01202593 -104.62283146 45.19007677 -101.12109375 44.51953125 C-101.1675 43.91367188 -101.21390625 43.3078125 -101.26171875 42.68359375 C-101.67634415 33.05836114 -99.08114816 26.44467137 -92.80859375 19.14453125 C-89.11365402 15.29287303 -85.98729063 12.69194057 -81.12109375 10.51953125 C-80.49203125 10.22433594 -79.86296875 9.92914063 -79.21484375 9.625 C-72.98699818 7.08041384 -67.06363056 7.45917709 -60.4765625 7.90234375 C-56.98101816 7.86949134 -56.98101816 7.86949134 -54.9453125 5.20703125 C-54.04232422 3.87671875 -54.04232422 3.87671875 -53.12109375 2.51953125 C-36.80750204 -10.35337567 -17.38365442 -12.64556813 0 0 Z M-67.80859375 40.76953125 C-68.73768555 41.64931641 -68.73768555 41.64931641 -69.68554688 42.546875 C-70.26626953 43.12050781 -70.84699219 43.69414063 -71.4453125 44.28515625 C-71.98244873 44.80883789 -72.51958496 45.33251953 -73.07299805 45.87207031 C-74.3313364 47.48148515 -74.3313364 47.48148515 -73.94482422 49.546875 C-72.60138469 52.76412201 -70.0418626 54.90717062 -67.55859375 57.26953125 C-67.03845703 57.77613281 -66.51832031 58.28273438 -65.98242188 58.8046875 C-64.70199291 60.0498753 -63.41241821 61.28564627 -62.12109375 62.51953125 C-64.1177574 67.50541966 -68.22678705 70.52699252 -72.1015625 74.08203125 C-72.76800781 74.88640625 -73.43445313 75.69078125 -74.12109375 76.51953125 C-73.79006953 79.71228765 -72.66552275 81.33966317 -70.3984375 83.53515625 C-69.86025391 84.06367187 -69.32207031 84.5921875 -68.76757812 85.13671875 C-68.20361328 85.67554688 -67.63964844 86.214375 -67.05859375 86.76953125 C-66.49076172 87.32382813 -65.92292969 87.878125 -65.33789062 88.44921875 C-63.93896906 89.81287339 -62.53090261 91.16713542 -61.12109375 92.51953125 C-56.13520534 90.5228676 -53.11363248 86.41383795 -49.55859375 82.5390625 C-47.12109375 80.51953125 -47.12109375 80.51953125 -44.91015625 80.62109375 C-42.89057628 81.6352933 -41.67373841 82.89631183 -40.12109375 84.51953125 C-39.46109375 84.51953125 -38.80109375 84.51953125 -38.12109375 84.51953125 C-37.46109375 85.83953125 -36.80109375 87.15953125 -36.12109375 88.51953125 C-35.46109375 88.51953125 -34.80109375 88.51953125 -34.12109375 88.51953125 C-34.12109375 89.17953125 -34.12109375 89.83953125 -34.12109375 90.51953125 C-32.80109375 91.17953125 -31.48109375 91.83953125 -30.12109375 92.51953125 C-27.91449747 90.47461231 -25.7322433 88.41146689 -23.55859375 86.33203125 C-22.93017578 85.75388672 -22.30175781 85.17574219 -21.65429688 84.58007812 C-18.06140974 81.30476062 -18.06140974 81.30476062 -17.01171875 76.78515625 C-18.22073926 74.31602985 -19.26455374 73.12445173 -21.43359375 71.45703125 C-24.17119999 69.27708554 -26.69045769 67.04739276 -29.12109375 64.51953125 C-27.1244301 59.53364284 -23.01540045 56.51206998 -19.140625 52.95703125 C-18.47417969 52.15265625 -17.80773437 51.34828125 -17.12109375 50.51953125 C-17.45211797 47.32677485 -18.57666475 45.69939933 -20.84375 43.50390625 C-21.38193359 42.97539063 -21.92011719 42.446875 -22.47460938 41.90234375 C-23.03857422 41.36351562 -23.60253906 40.8246875 -24.18359375 40.26953125 C-24.75142578 39.71523437 -25.31925781 39.1609375 -25.90429688 38.58984375 C-27.30321844 37.22618911 -28.71128489 35.87192708 -30.12109375 34.51953125 C-35.10698216 36.5161949 -38.12855502 40.62522455 -41.68359375 44.5 C-44.12109375 46.51953125 -44.12109375 46.51953125 -46.08203125 46.66796875 C-49.13853261 44.94649097 -51.37548427 42.49561173 -53.74609375 39.95703125 C-55.50181469 38.09273283 -57.27498008 36.29824712 -59.12109375 34.51953125 C-62.84077395 34.51953125 -65.28500741 38.27003004 -67.80859375 40.76953125 Z " fill="#030303" transform="translate(248.12109375,39.48046875)"/>
<path d="M0 0 C5.28 0 10.56 0 16 0 C15.38123285 4.33137002 14.74247893 8.561075 13.9140625 12.84375 C13.70676514 13.91842529 13.49946777 14.99310059 13.28588867 16.1003418 C13.06779541 17.222229 12.84970215 18.34411621 12.625 19.5 C12.40239502 20.65604736 12.17979004 21.81209473 11.95043945 23.00317383 C10.99709426 27.9393373 10.03782467 32.87298025 9.00390625 37.79296875 C8.73449219 39.07816406 8.46507812 40.36335938 8.1875 41.6875 C7.83751953 43.30205078 7.83751953 43.30205078 7.48046875 44.94921875 C6.94644287 48.34006599 6.91809327 51.57284991 7 55 C9.97 54.505 9.97 54.505 13 54 C12.69147815 55.958964 12.3780582 57.91715713 12.0625 59.875 C11.88847656 60.96554687 11.71445312 62.05609375 11.53515625 63.1796875 C11 66 11 66 10 68 C4.59710348 69.09889421 1.18610439 69.20409437 -4 67 C-4 66.34 -4 65.68 -4 65 C-4.99 64.67 -5.98 64.34 -7 64 C-7.33 63.01 -7.66 62.02 -8 61 C-10.07201033 61.98755058 -11.99995502 62.99996952 -13.90234375 64.2890625 C-20.38782552 68.54632692 -26.3776481 69.05947748 -34 68 C-38.03054846 66.722187 -40.42986095 65.0907008 -42.4375 61.25 C-42.623125 60.5075 -42.80875 59.765 -43 59 C-43.66 59 -44.32 59 -45 59 C-47.39090417 49.58581484 -48.2486531 40.56142435 -43.8125 31.6015625 C-39.66022279 24.80897858 -34.87012211 21.45129579 -27.5 18.6875 C-19.76380339 17.16788995 -14.58715064 17.632909 -8 22 C-7.01 22.99 -6.02 23.98 -5 25 C-3.35 16.75 -1.7 8.5 0 0 Z M-24 32 C-24 32.66 -24 33.32 -24 34 C-24.61875 34.2475 -25.2375 34.495 -25.875 34.75 C-28.4758247 36.27989688 -28.91746381 37.20819614 -30 40 C-30.39035935 42.90996515 -30.39035935 42.90996515 -30.375 46 C-30.40335937 47.03125 -30.43171875 48.0625 -30.4609375 49.125 C-29.88459039 52.71984301 -28.90682337 53.86025502 -26 56 C-21.54785005 57.10089526 -17.75716769 56.33651897 -13.625 54.5 C-9.79613243 50.85345946 -8.08602661 47.1657791 -7.94140625 41.84375 C-8.19934913 38.90210358 -8.88142173 36.28903453 -10 33.5625 C-13.96377815 30.46579832 -19.37097637 30.45699212 -24 32 Z " fill="#0C0B09" transform="translate(323,252)"/>
<path d="M0 0 C5.28 0 10.56 0 16 0 C15.69964844 1.67449219 15.39929688 3.34898437 15.08984375 5.07421875 C14.70525597 7.27856333 14.32116743 9.48299505 13.9375 11.6875 C13.73833984 12.79029297 13.53917969 13.89308594 13.33398438 15.02929688 C13.15029297 16.09599609 12.96660156 17.16269531 12.77734375 18.26171875 C12.60452881 19.24100342 12.43171387 20.22028809 12.25366211 21.22924805 C11.99367371 24.06910209 12.29566479 26.25067907 13 29 C16.73486879 29.5745952 20.21293268 30 24 30 C24 29.34 24 28.68 24 28 C25.32 27.67 26.64 27.34 28 27 C28.20302734 26.16662109 28.20302734 26.16662109 28.41015625 25.31640625 C29.04013969 22.84236532 29.73949288 20.39318308 30.4375 17.9375 C31.79056139 13.03347749 32.75971089 8.13722902 33.5703125 3.1171875 C34 1 34 1 35 0 C37.53049402 -0.07313567 40.03304837 -0.09247527 42.5625 -0.0625 C43.62887695 -0.05573242 43.62887695 -0.05573242 44.71679688 -0.04882812 C46.47790013 -0.03700864 48.23896036 -0.01907263 50 0 C48.78776187 10.40810519 46.88992916 20.69689296 45 31 C44.76192627 32.32451172 44.76192627 32.32451172 44.51904297 33.67578125 C42.34706313 45.52378158 39.61322855 54.98087471 29.86328125 62.78515625 C23.0973334 67.19649751 14.95426377 68.85896635 7 68 C0.66968746 66.44955543 -5.2882809 64.7117191 -10 60 C-9.01 58.02 -8.02 56.04 -7 54 C-6.34 54 -5.68 54 -5 54 C-5 53.01 -5 52.02 -5 51 C-2.38017191 51.64479139 0.21207821 52.33779229 2.8125 53.0625 C9.67921925 54.74103137 14.65320436 54.29545158 21 51 C23.83080329 48.71906497 24.52104333 46.84984692 25.1875 43.3125 C25.42533203 42.10013672 25.42533203 42.10013672 25.66796875 40.86328125 C25.77753906 40.24839844 25.88710937 39.63351563 26 39 C25.34 39 24.68 39 24 39 C24 39.66 24 40.32 24 41 C17.70266996 44.40725103 12.18654027 46.17597932 5 45 C0.09440931 43.27890158 -2.7047357 40.64421898 -5 36 C-6.88648849 24.5621013 -3.62045733 10.86137198 0 0 Z " fill="#0B0A08" transform="translate(227,189)"/>
<path d="M0 0 C4.80137245 -0.09978872 9.60212521 -0.17189617 14.40429688 -0.21972656 C16.03363578 -0.23969079 17.66290445 -0.2668723 19.29199219 -0.30175781 C36.65285305 -0.6638862 36.65285305 -0.6638862 45 4 C45 4.66 45 5.32 45 6 C45.66 6 46.32 6 47 6 C50.92288441 13.02850123 51.31478981 20.80344981 49.34375 28.59375 C46.53168244 35.67240282 41.65828192 40.97318102 34.875 44.4375 C26.53139107 47.5011689 16.74669481 46.31384773 8 46 C7.79503906 47.21558594 7.59007813 48.43117187 7.37890625 49.68359375 C7.10698039 51.26826514 6.83483357 52.85289863 6.5625 54.4375 C6.42779297 55.23994141 6.29308594 56.04238281 6.15429688 56.86914062 C5.11328125 62.88671875 5.11328125 62.88671875 4 64 C1.30345146 64.07319621 -1.36691458 64.09242537 -4.0625 64.0625 C-4.82111328 64.05798828 -5.57972656 64.05347656 -6.36132812 64.04882812 C-8.24091871 64.0370068 -10.12046899 64.01907078 -12 64 C-10.75074789 54.62128639 -8.91821802 45.38447506 -7.03955078 36.11572266 C-5.37457831 27.89851465 -3.76498635 19.67194463 -2.1875 11.4375 C-1.96860107 10.29514893 -1.74970215 9.15279785 -1.52416992 7.97583008 C-1.01534643 5.31736564 -0.50722454 2.65876991 0 0 Z M14 13 C12.68 19.6 11.36 26.2 10 33 C14.0528125 33.0928125 14.0528125 33.0928125 18.1875 33.1875 C19.02949951 33.21481201 19.87149902 33.24212402 20.73901367 33.27026367 C25.29780102 33.32065797 28.36061774 33.05460439 32 30 C33.24797717 28.14606799 33.24797717 28.14606799 33.875 26.0625 C34.11992188 25.39347656 34.36484375 24.72445312 34.6171875 24.03515625 C35.06528477 21.65292485 34.8319404 20.26551002 34 18 C32.09843863 15.85307587 30.56872921 14.28436461 28 13 C25.62597499 12.92883618 23.24999323 12.91590915 20.875 12.9375 C17.471875 12.9684375 17.471875 12.9684375 14 13 Z " fill="#0B0A08" transform="translate(75,174)"/>
<path d="M0 0 C1.93443755 1.64427191 3.80236143 3.23873492 5.5 5.125 C5.83 2.815 6.16 0.505 6.5 -1.875 C11.78 -1.875 17.06 -1.875 22.5 -1.875 C22.07074219 0.47044922 22.07074219 0.47044922 21.6328125 2.86328125 C20.51564798 9.00768609 19.44071324 15.15899284 18.375 21.3125 C18.19324219 22.35986328 18.01148438 23.40722656 17.82421875 24.48632812 C17.38241996 27.03248428 16.94101907 29.57870869 16.5 32.125 C18.7236068 33.4231424 18.7236068 33.4231424 22.5 33.125 C22.35866501 34.89619803 22.21176792 36.66695287 22.0625 38.4375 C21.98128906 39.42363281 21.90007812 40.40976563 21.81640625 41.42578125 C21.5 44.125 21.5 44.125 20.5 47.125 C17.29545562 48.72727219 13.98463087 48.47540981 10.5 48.125 C6.29352929 46.69638731 4.89342593 45.79382407 2.625 41.9375 C2.25375 41.009375 1.8825 40.08125 1.5 39.125 C1.00371094 39.52332031 0.50742187 39.92164063 -0.00390625 40.33203125 C-6.26492606 45.21491388 -11.97712247 48.78742004 -20.14453125 48.5625 C-24.42315993 47.76779616 -27.9110766 45.50064669 -31.5 43.125 C-31.5 42.135 -31.5 41.145 -31.5 40.125 C-32.16 40.125 -32.82 40.125 -33.5 40.125 C-37.7986305 32.78150623 -37.8353322 23.52772338 -35.8203125 15.375 C-35 13.1875 -35 13.1875 -33.5 10.125 C-32.84 10.125 -32.18 10.125 -31.5 10.125 C-31.273125 9.568125 -31.04625 9.01125 -30.8125 8.4375 C-28.16076458 3.76539473 -24.26870983 0.50935492 -19.5 -1.875 C-12.85073475 -3.56815186 -6.06970785 -3.2516292 0 0 Z M-18.5 16.125 C-21.01697469 20.35809379 -20.80459781 24.32758446 -20.5 29.125 C-19.32986774 32.5453866 -18.62689277 33.04040482 -15.5 35.125 C-11.7588421 35.80197143 -8.06594725 35.95422523 -4.6484375 34.14453125 C-1.76478109 31.8361856 0.15048086 29.52975013 1.5 26.125 C1.7772828 23.60243495 1.7772828 23.60243495 1.6875 21 C1.68105469 20.13117188 1.67460937 19.26234375 1.66796875 18.3671875 C1.6397507 16.0885455 1.6397507 16.0885455 0.5 14.125 C-0.16 14.125 -0.82 14.125 -1.5 14.125 C-1.5 13.465 -1.5 12.805 -1.5 12.125 C-8.0825992 8.8337004 -13.87147624 11.04491295 -18.5 16.125 Z " fill="#0D0C0A" transform="translate(317.5,190.875)"/>
<path d="M0 0 C1.32959344 0.67409458 2.66196391 1.34282298 4 2 C4 2.66 4 3.32 4 4 C5.32 4.66 6.64 5.32 8 6 C5.49653351 10.85967024 1.91447559 14.27856704 -2 18 C-2.61488281 17.57847656 -3.22976562 17.15695312 -3.86328125 16.72265625 C-4.67152344 16.17480469 -5.47976562 15.62695312 -6.3125 15.0625 C-7.11300781 14.51722656 -7.91351563 13.97195313 -8.73828125 13.41015625 C-13.31358878 10.55750337 -17.76092957 10.2904566 -23 11 C-27.87400538 12.66353613 -31.86618379 15.01879841 -34.5625 19.5 C-37.0470118 25.56174869 -37.5549139 33.21467681 -35.046875 39.3203125 C-33.34018867 41.90194563 -31.3910515 43.7430233 -28.8125 45.4375 C-20.77166111 47.04566778 -15.26020127 46.21456253 -8.12890625 42.09375 C-6 41 -6 41 -3 41 C2 46.34883721 2 46.34883721 2 49 C2.66 49 3.32 49 4 49 C2.38234294 53.85297118 -1.63784792 55.62290714 -6 58 C-16.95609814 62.50716586 -25.67399728 64.08791042 -37 60 C-45.47983871 55.56048387 -45.47983871 55.56048387 -47 51 C-47.66 51 -48.32 51 -49 51 C-49.65357278 49.77493102 -50.29748233 48.54470484 -50.9375 47.3125 C-51.29714844 46.62800781 -51.65679687 45.94351563 -52.02734375 45.23828125 C-55.62091459 36.96873872 -55.13809742 26.2308085 -51.92578125 17.93359375 C-50.55719484 15.07515378 -48.87887628 12.54557432 -47 10 C-46.34 9.01 -45.68 8.02 -45 7 C-44.34 7 -43.68 7 -43 7 C-43 6.34 -43 5.68 -43 5 C-39.85543456 2.68668239 -36.42612415 0.862024 -33 -1 C-32.37867187 -1.34933594 -31.75734375 -1.69867188 -31.1171875 -2.05859375 C-21.62976219 -6.50449485 -8.78047766 -5.23011061 0 0 Z " fill="#0B0A08" transform="translate(110,259)"/>
<path d="M0 0 C5.28 0 10.56 0 16 0 C14.125 12.58928571 14.125 12.58928571 12.875 18.1875 C11.86977133 23.06206125 11.35155454 28.04129943 12 33 C13.92279453 35.34783968 13.92279453 35.34783968 17.3125 35.3125 C21.29513625 34.97498845 22.98915916 34.59266851 26 32 C29.07243833 26.00142992 30.29191814 19.75827695 31.625 13.1875 C32.05238048 11.11801181 32.48195665 9.04897545 32.9140625 6.98046875 C33.0992041 6.07192139 33.2843457 5.16337402 33.47509766 4.22729492 C34 2 34 2 35 0 C40.28 0 45.56 0 51 0 C50.73445313 1.42570312 50.46890625 2.85140625 50.1953125 4.3203125 C48.24742145 14.85696699 46.37847612 25.3712236 45 36 C47.97 35.505 47.97 35.505 51 35 C50.85795259 36.58367747 50.71119847 38.16693318 50.5625 39.75 C50.48128906 40.63171875 50.40007812 41.5134375 50.31640625 42.421875 C50.03761535 44.69350452 49.61209423 46.79851823 49 49 C43.67924257 50.08586886 40.10526486 49.86538524 35 48 C31.52082818 45.68055212 30.70570234 43.73630036 29 40 C28.319375 40.7425 27.63875 41.485 26.9375 42.25 C21.70635616 47.3362368 17.81154425 49.25684085 10.5 49.5 C4.76999493 49.30241362 1.43240961 48.66155576 -3 45 C-6.91479175 39.8223722 -6.37779391 34.20800702 -6 28 C-5.37818106 23.80745805 -4.49720229 19.69527459 -3.5625 15.5625 C-3.33240234 14.50095703 -3.10230469 13.43941406 -2.86523438 12.34570312 C-1.96480179 8.21415301 -1.02563059 4.10252234 0 0 Z " fill="#0D0C09" transform="translate(219,271)"/>
<path d="M0 0 C5.47091416 5.14265931 7.97614039 11.19592727 8.4375 18.625 C8.32340955 24.87145205 6.1374487 30.63540462 3 36 C2.01 36.33 1.02 36.66 0 37 C-0.33 37.99 -0.66 38.98 -1 40 C-9.8958839 46.72097111 -19.36448237 47.27961849 -30 46 C-33.41654656 44.98801026 -35.90131243 43.80287277 -39 42 C-39 41.34 -39 40.68 -39 40 C-39.99 39.67 -40.98 39.34 -42 39 C-46.91222638 32.009524 -46.8135015 24.30486694 -46 16 C-44.33999609 11.01998828 -42.06496902 6.43288268 -38 3 C-37.34 3 -36.68 3 -36 3 C-36 2.34 -36 1.68 -36 1 C-34.41800369 0.35089846 -32.83434276 -0.29414694 -31.25 -0.9375 C-30.36828125 -1.29714844 -29.4865625 -1.65679687 -28.578125 -2.02734375 C-19.11935249 -5.59588065 -8.8523784 -5.04641953 0 0 Z M-25 10 C-25 10.66 -25 11.32 -25 12 C-25.66 12 -26.32 12 -27 12 C-30.09418815 17.02805574 -30.79751093 21.23665435 -30 27 C-28.37599816 30.63467079 -27.33886956 31.77408696 -24 34 C-19.73735442 34.48256365 -17.50867256 34.26873267 -13.6875 32.25 C-9.97960274 29.14571392 -9.32468411 27.32371213 -8.1875 22.6875 C-7.92535593 17.53200001 -9.29436043 13.95832691 -12.6875 10.0625 C-16.5369521 8.29383282 -21.14317616 8.07158808 -25 10 Z " fill="#0B0A08" transform="translate(199,274)"/>
<path d="M0 0 C3.99153736 3.20050376 6.51122403 7.03367209 8.125 11.875 C8.19240865 13.43618428 8.21014456 15.0000252 8.1875 16.5625 C8.17847656 17.37074219 8.16945312 18.17898437 8.16015625 19.01171875 C8.14855469 19.62660156 8.13695312 20.24148437 8.125 20.875 C4.06720617 22.28432551 0.03908579 23.42921809 -4.1484375 24.3828125 C-5.30214844 24.64707031 -6.45585937 24.91132813 -7.64453125 25.18359375 C-9.42923828 25.58771484 -9.42923828 25.58771484 -11.25 26 C-13.06951172 26.41572266 -13.06951172 26.41572266 -14.92578125 26.83984375 C-17.90826025 27.52088226 -20.89133555 28.19917743 -23.875 28.875 C-23.52919517 30.83717808 -23.52919517 30.83717808 -22.875 32.875 C-19.31252038 35.14203248 -16.12754567 35.06860705 -12.01171875 34.43359375 C-8.31860831 33.46811881 -5.20651805 31.71923321 -1.875 29.875 C0.435 32.185 2.745 34.495 5.125 36.875 C0.20634917 43.38497903 -4.79520409 46.15307628 -12.875 47.875 C-21.36581597 48.75020719 -28.62972516 47.51570764 -35.7265625 42.58984375 C-40.58348881 38.29517246 -42.29801958 32.93523259 -43.19140625 26.6484375 C-43.6297417 18.64528054 -40.62647963 11.69095354 -35.6875 5.5 C-27.33150455 -3.13569405 -10.81936195 -6.29601289 0 0 Z M-22.875 11.875 C-25.06202362 14.86393229 -25.875 16.15444454 -25.875 19.875 C-19.52049677 18.62797849 -13.19172565 17.30135741 -6.875 15.875 C-6.98841534 13.46622743 -6.98841534 13.46622743 -7.875 10.875 C-13.60215347 6.38614998 -17.43282925 7.59073792 -22.875 11.875 Z " fill="#0E0D0B" transform="translate(169.875,191.125)"/>
<path d="M0 0 C1.39456452 0.00667256 2.78911118 0.01863093 4.18359375 0.03515625 C4.89451172 0.03966797 5.60542969 0.04417969 6.33789062 0.04882812 C8.09899388 0.06064761 9.86005411 0.07858362 11.62109375 0.09765625 C13.11451344 3.08449562 12.02758051 5.04926603 11.18359375 8.22265625 C10.75240234 9.86621094 10.75240234 9.86621094 10.3125 11.54296875 C10.08433594 12.38601562 9.85617188 13.2290625 9.62109375 14.09765625 C13.58109375 14.09765625 17.54109375 14.09765625 21.62109375 14.09765625 C23.03796494 18.34826981 21.81429414 20.8161725 20.62109375 25.09765625 C16.33109375 25.09765625 12.04109375 25.09765625 7.62109375 25.09765625 C6.34290999 32.42590978 5.24429684 39.68481947 4.62109375 47.09765625 C7.77446175 47.79840469 10.34834349 48.09765625 13.62109375 48.09765625 C14.19568895 51.83252504 14.62109375 55.31058893 14.62109375 59.09765625 C7.13365014 62.48819675 0.07501714 63.52927448 -7.87890625 60.97265625 C-11.0294157 58.60977416 -12.09215157 56.81494755 -13.37890625 53.09765625 C-13.75847259 47.04689374 -12.65283412 41.49609523 -11.4453125 35.60546875 C-11.24791977 34.61892303 -11.05052704 33.63237732 -10.84715271 32.61593628 C-10.43085373 30.54278933 -10.01128364 28.47029684 -9.58862305 26.3984375 C-8.93960643 23.21382487 -8.30204009 20.02707384 -7.66601562 16.83984375 C-7.25978453 14.82408362 -6.85290647 12.80845374 -6.4453125 10.79296875 C-6.25360977 9.83576935 -6.06190704 8.87856995 -5.86439514 7.8923645 C-5.59422829 6.5749678 -5.59422829 6.5749678 -5.31860352 5.23095703 C-5.16094009 4.45487091 -5.00327667 3.67878479 -4.84083557 2.87918091 C-4.00923278 -0.32806489 -3.54289347 0.10239576 0 0 Z " fill="#0E0D0B" transform="translate(196.37890625,176.90234375)"/>
<path d="M0 0 C1.48831242 0.00667405 2.97660807 0.01863442 4.46484375 0.03515625 C5.22345703 0.03966797 5.98207031 0.04417969 6.76367188 0.04882812 C8.64326246 0.06064945 10.52281274 0.07858547 12.40234375 0.09765625 C7.51532595 26.90229631 7.51532595 26.90229631 5.02734375 38.140625 C3.13320284 46.54794748 3.13320284 46.54794748 2.40234375 55.09765625 C5.04234375 54.76765625 7.68234375 54.43765625 10.40234375 54.09765625 C10.48348481 55.86773339 10.5415988 57.63887723 10.58984375 59.41015625 C10.64205078 60.88935547 10.64205078 60.88935547 10.6953125 62.3984375 C10.40234375 65.09765625 10.40234375 65.09765625 9.15625 66.90234375 C4.88343407 69.81432966 -0.52782019 69.27303921 -5.41015625 68.47265625 C-9.66338226 66.6379313 -11.55798658 64.17699559 -13.59765625 60.09765625 C-14.36310272 50.36650201 -12.77390026 41.2076159 -10.78515625 31.72265625 C-10.52033061 30.41559782 -10.25665581 29.10830568 -9.99414062 27.80078125 C-9.47028945 25.20868805 -8.94025961 22.61783523 -8.40380859 20.02832031 C-7.83839613 17.29413058 -7.29436801 14.55666255 -6.76416016 11.81542969 C-6.62931717 11.12283051 -6.49447418 10.43023132 -6.35554504 9.71664429 C-5.98107053 7.78732077 -5.61018405 5.85730184 -5.23950195 3.92724609 C-4.37561285 0.11877342 -4.37561285 0.11877342 0 0 Z " fill="#0C0B09" transform="translate(135.59765625,251.90234375)"/>
<path d="M0 0 C0.474375 0.495 0.94875 0.99 1.4375 1.5 C5.21704967 3.71241932 8.71702146 3.59443474 13 3 C15.97984167 1.66829691 15.97984167 1.66829691 18 0 C18 0.66 18 1.32 18 2 C18.66 2.33 19.32 2.66 20 3 C19.34 3 18.68 3 18 3 C19.72226496 6.24849977 19.72226496 6.24849977 23 7 C21.7193783 9.5612434 20.55174653 9.7857521 18 11 C17.37222656 11.42539062 16.74445313 11.85078125 16.09765625 12.2890625 C9.51894207 16.60752747 3.700917 16.53561247 -4 16 C-4 15.67 -4 15.34 -4 15 C-2.35 15 -0.7 15 1 15 C1.86425046 10.50589763 2.32761309 7.97063409 0 4 C0 2.68 0 1.36 0 0 Z " fill="#13120E" transform="translate(293,304)"/>
<path d="M0 0 C2.61959977 1.32089988 4.6856865 2.95146262 6.84375 4.9296875 C6.84375 5.5896875 6.84375 6.2496875 6.84375 6.9296875 C3.72084365 6.44390207 0.84794641 5.9310863 -2.15625 4.9296875 C-2.548125 5.3628125 -2.94 5.7959375 -3.34375 6.2421875 C-5.46704376 8.21904721 -7.57621782 9.60659408 -10.15625 10.9296875 C-10.81625 10.5996875 -11.47625 10.2696875 -12.15625 9.9296875 C-10.5886982 8.2275177 -9.00165216 6.54328196 -7.40625 4.8671875 C-6.52453125 3.92746094 -5.6428125 2.98773438 -4.734375 2.01953125 C-2.15625 -0.0703125 -2.15625 -0.0703125 0 0 Z " fill="#211E15" transform="translate(203.15625,119.0703125)"/>
<path d="M0 0 C0.73828125 1.76171875 0.73828125 1.76171875 1 4 C-0.58203125 5.89453125 -0.58203125 5.89453125 -2.8125 7.8125 C-6.70290015 11.43131898 -8.13255869 13.79535213 -9 19 C-11.31 18.67 -13.62 18.34 -16 18 C-16 17.34 -16 16.68 -16 16 C-17.32 16 -18.64 16 -20 16 C-19.67 14.68 -19.34 13.36 -19 12 C-18.34 12 -17.68 12 -17 12 C-17 12.66 -17 13.32 -17 14 C-15.15619363 14.72550346 -15.15619363 14.72550346 -13 15 C-10.71806902 13.14574416 -8.8122046 11.37272623 -6.8125 9.25 C-6.26658203 8.69828125 -5.72066406 8.1465625 -5.15820312 7.578125 C-2.75228128 5.09767026 -1.10520757 3.3156227 0 0 Z " fill="#2C2B20" transform="translate(231,116)"/>
<path d="M0 0 C-1.3125 2.5 -1.3125 2.5 -3 5 C-3.99 5 -4.98 5 -6 5 C-6.66 5.66 -7.32 6.32 -8 7 C-8 6.34 -8 5.68 -8 5 C-11.39192363 5.59283621 -13.2107757 6.76743189 -15.75 9.0625 C-16.36359375 9.61035156 -16.9771875 10.15820312 -17.609375 10.72265625 C-18.06828125 11.14417969 -18.5271875 11.56570312 -19 12 C-19.66 11.67 -20.32 11.34 -21 11 C-16.1066383 5.37749499 -8.08118025 -2.97238814 0 0 Z " fill="#272519" transform="translate(175,49)"/>
<path d="M0 0 C-0.14453125 1.859375 -0.14453125 1.859375 -1 4 C-3.51171875 5.265625 -3.51171875 5.265625 -6.6875 6.25 C-7.72261719 6.58515625 -8.75773437 6.9203125 -9.82421875 7.265625 C-13.00091692 8.00021203 -15.75263877 8.13632101 -19 8 C-19 7.67 -19 7.34 -19 7 C-17.35 7 -15.7 7 -14 7 C-13.67 6.34 -13.34 5.68 -13 5 C-12.01 4.67 -11.02 4.34 -10 4 C-9.67 3.01 -9.34 2.02 -9 1 C-2.25 0 -2.25 0 0 0 Z " fill="#201E1C" transform="translate(105,313)"/>
<path d="M0 0 C0.33 0.66 0.66 1.32 1 2 C3.02463255 2.65213292 3.02463255 2.65213292 5 3 C3.87970983 4.48273699 2.75361382 5.96108886 1.625 7.4375 C0.68527344 8.67306641 0.68527344 8.67306641 -0.2734375 9.93359375 C-2 12 -2 12 -4 13 C-4 12.34 -4 11.68 -4 11 C-4.66 10.67 -5.32 10.34 -6 10 C-4.35 9.01 -2.7 8.02 -1 7 C-1.33 6.34 -1.66 5.68 -2 5 C-1.0625 2.375 -1.0625 2.375 0 0 Z " fill="#282823" transform="translate(274,131)"/>
<path d="M0 0 C0.66 0.33 1.32 0.66 2 1 C1.25 3.9375 1.25 3.9375 0 7 C-2.83086246 8.08141412 -5.54110016 8.11796554 -8.546875 8.09765625 C-9.39121094 8.09443359 -10.23554687 8.09121094 -11.10546875 8.08789062 C-11.97816406 8.07951172 -12.85085937 8.07113281 -13.75 8.0625 C-15.08224609 8.05573242 -15.08224609 8.05573242 -16.44140625 8.04882812 C-18.62767329 8.037074 -20.81380179 8.02064249 -23 8 C-23 7.67 -23 7.34 -23 7 C-21.24623047 6.92652344 -21.24623047 6.92652344 -19.45703125 6.8515625 C-17.90883196 6.77649829 -16.36065599 6.70095205 -14.8125 6.625 C-14.04357422 6.5940625 -13.27464844 6.563125 -12.48242188 6.53125 C-8.31264877 6.31649774 -4.74206806 6.04644347 -1 4 C-0.11306697 1.95894361 -0.11306697 1.95894361 0 0 Z " fill="#454331" transform="translate(108,200)"/>
<path d="M0 0 C0.66 0.33 1.32 0.66 2 1 C1.525625 1.5775 1.05125 2.155 0.5625 2.75 C-1.28123634 5.12150978 -1.28123634 5.12150978 -2 9 C-4.97 9.66 -7.94 10.32 -11 11 C-7.56530675 6.84641746 -4.36729534 3.21124658 0 0 Z " fill="#1F1D11" transform="translate(200,38)"/>
<path d="M0 0 C1.12894876 0.93274109 2.25300876 1.87140122 3.375 2.8125 C4.00148437 3.33457031 4.62796875 3.85664062 5.2734375 4.39453125 C7 6 7 6 9 9 C6 10 6 10 3.8125 9.0625 C3.214375 8.711875 2.61625 8.36125 2 8 C2 7.01 2 6.02 2 5 C1.34 5 0.68 5 0 5 C0 3.35 0 1.7 0 0 Z " fill="#1E1D14" transform="translate(174,90)"/>
<path d="M0 0 C2.25 -0.25 2.25 -0.25 5 0 C7.3125 2 7.3125 2 9 4 C8.67 4.99 8.34 5.98 8 7 C4.59679258 5.98823563 3.24274669 5.35156418 1.1875 2.375 C0.795625 1.59125 0.40375 0.8075 0 0 Z " fill="#19140D" transform="translate(223,226)"/>
<path d="M0 0 C0.99 0 1.98 0 3 0 C3.08114106 1.77007714 3.13925505 3.54122098 3.1875 5.3125 C3.22230469 6.29863281 3.25710937 7.28476562 3.29296875 8.30078125 C3 11 3 11 1.625 12.875 C0 14 0 14 -2.1875 13.6875 C-2.785625 13.460625 -3.38375 13.23375 -4 13 C-3.01 13 -2.02 13 -1 13 C-1.33 12.01 -1.66 11.02 -2 10 C-1.67 9.34 -1.34 8.68 -1 8 C-0.01 8 0.98 8 2 8 C2 5.69 2 3.38 2 1 C1.34 0.67 0.68 0.34 0 0 Z " fill="#413F33" transform="translate(143,306)"/>
<path d="M0 0 C0 3 0 3 -1 5 C-0.34 5.33 0.32 5.66 1 6 C0.01 7.32 -0.98 8.64 -2 10 C-3.32 9.34 -4.64 8.68 -6 8 C-4.55746343 4.63408134 -2.66735273 2.48952921 0 0 Z " fill="#2B261E" transform="translate(224,96)"/>
<path d="M0 0 C1.76462683 3.08809695 2 4.23312136 2 8 C1 10.25 1 10.25 0 12 C-0.99 12 -1.98 12 -3 12 C-2.84402344 11.37351563 -2.68804687 10.74703125 -2.52734375 10.1015625 C-2.33269531 9.28429687 -2.13804687 8.46703125 -1.9375 7.625 C-1.74027344 6.81289062 -1.54304687 6.00078125 -1.33984375 5.1640625 C-0.77890681 2.95838716 -0.77890681 2.95838716 -2 1 C-1.34 0.67 -0.68 0.34 0 0 Z " fill="#29261D" transform="translate(254,225)"/>
<path d="M0 0 C3.465 1.485 3.465 1.485 7 3 C7 3.66 7 4.32 7 5 C7.66 5 8.32 5 9 5 C8.67 5.66 8.34 6.32 8 7 C7.34 6.67 6.68 6.34 6 6 C6 6.66 6 7.32 6 8 C4.125 7.375 4.125 7.375 2 6 C0.75 2.875 0.75 2.875 0 0 Z " fill="#29251C" transform="translate(113,175)"/>
<path d="M0 0 C0.53625 0.226875 1.0725 0.45375 1.625 0.6875 C0.985625 0.955625 0.34625 1.22375 -0.3125 1.5 C-2.70631686 2.57417752 -2.70631686 2.57417752 -3.375 5.6875 C-6.015 5.6875 -8.655 5.6875 -11.375 5.6875 C-8.45877964 2.28524292 -4.62034368 -0.60793996 0 0 Z " fill="#2B271A" transform="translate(81.375,257.3125)"/>
<path d="M0 0 C4.95 0 9.9 0 15 0 C16.43088528 2.86177057 15.59991697 4.93375773 15 8 C14.67 8 14.34 8 14 8 C13.34 6.02 12.68 4.04 12 2 C8.04 1.67 4.08 1.34 0 1 C0 0.67 0 0.34 0 0 Z " fill="#676451" transform="translate(193,177)"/>
<path d="M0 0 C0.99 0.99 1.98 1.98 3 3 C1.35 4.32 -0.3 5.64 -2 7 C-2.33 6.34 -2.66 5.68 -3 5 C-3.99 5.495 -3.99 5.495 -5 6 C-3.63016497 2.83884224 -3.0109362 2.0072908 0 0 Z " fill="#171615" transform="translate(182,103)"/>
<path d="M0 0 C0.66 0.33 1.32 0.66 2 1 C2.125 4.375 2.125 4.375 2 8 C1.34 8.66 0.68 9.32 0 10 C-1.60339848 6.88228073 -2.18974141 5.60988311 -1.125 2.1875 C-0.75375 1.465625 -0.3825 0.74375 0 0 Z " fill="#181810" transform="translate(245,303)"/>
<path d="M0 0 C2.92879371 0.62759865 5.36095629 1.58622659 8 3 C7.67 3.99 7.34 4.98 7 6 C2.32307692 4.52307692 2.32307692 4.52307692 0.6875 1.875 C0.460625 1.25625 0.23375 0.6375 0 0 Z " fill="#242118" transform="translate(104,257)"/>
<path d="M0 0 C1.32 0.33 2.64 0.66 4 1 C4 1.66 4 2.32 4 3 C4.66 3 5.32 3 6 3 C6.33 3.99 6.66 4.98 7 6 C6.34 6.66 5.68 7.32 5 8 C2.20127563 5.47211993 0.54226981 3.79588866 0 0 Z " fill="#262719" transform="translate(129,225)"/>
<path d="M0 0 C0.66 0.33 1.32 0.66 2 1 C1 4 1 4 -0.9375 5 C-1.9584375 5.495 -1.9584375 5.495 -3 6 C-3.99 7.485 -3.99 7.485 -5 9 C-5.66 9 -6.32 9 -7 9 C-5.44499019 5.18315774 -2.96404505 2.80804268 0 0 Z " fill="#312F1E" transform="translate(293,192)"/>
<path d="M0 0 C1.32 0.33 2.64 0.66 4 1 C4 2.98 4 4.96 4 7 C2.66666667 7 1.33333333 7 0 7 C0 4.69 0 2.38 0 0 Z " fill="#171516" transform="translate(136,286)"/>
<path d="M0 0 C0.66 0 1.32 0 2 0 C1.67 2.31 1.34 4.62 1 7 C-0.32 6.67 -1.64 6.34 -3 6 C-3 5.01 -3 4.02 -3 3 C-2.34 3 -1.68 3 -1 3 C-0.67 2.01 -0.34 1.02 0 0 Z " fill="#110E0F" transform="translate(84,201)"/>
<path d="M0 0 C0.33 0.99 0.66 1.98 1 3 C-0.65 4.32 -2.3 5.64 -4 7 C-4.66 6.01 -5.32 5.02 -6 4 C-2.25 0 -2.25 0 0 0 Z " fill="#201B16" transform="translate(259,246)"/>
<path d="M0 0 C3.07536854 0.65900754 5.07735566 1.53867783 8 3 C4.7 3.66 1.4 4.32 -2 5 C-2 4.34 -2 3.68 -2 3 C-1.34 3 -0.68 3 0 3 C0 2.01 0 1.02 0 0 Z " fill="#373323" transform="translate(222,240)"/>
<path d="M0 0 C-1.20819367 3.624581 -1.80341913 3.40170957 -5 5 C-5.33 5.99 -5.66 6.98 -6 8 C-7.32 7.34 -8.64 6.68 -10 6 C-8.71283353 4.99421411 -7.42011342 3.99553202 -6.125 3 C-5.40570313 2.443125 -4.68640625 1.88625 -3.9453125 1.3125 C-2 0 -2 0 0 0 Z " fill="#403B2C" transform="translate(142,86)"/>
<path d="M0 0 C0.33 0.66 0.66 1.32 1 2 C0.34 2 -0.32 2 -1 2 C-1 2.66 -1 3.32 -1 4 C-3 5.625 -3 5.625 -5 7 C-5 6.34 -5 5.68 -5 5 C-5.66 4.67 -6.32 4.34 -7 4 C-7.33 3.34 -7.66 2.68 -8 2 C-5.36 1.34 -2.72 0.68 0 0 Z " fill="#2A261A" transform="translate(242,305)"/>
<path d="M0 0 C0.66 0.33 1.32 0.66 2 1 C1.67 2.65 1.34 4.3 1 6 C0.67 5.34 0.34 4.68 0 4 C-0.99 4.33 -1.98 4.66 -3 5 C-3.66 4.34 -4.32 3.68 -5 3 C-2.625 1.4375 -2.625 1.4375 0 0 Z " fill="#2A241B" transform="translate(167,221)"/>
<path d="M0 0 C1.98 0.99 3.96 1.98 6 3 C4.60804085 5.7839183 2.84424221 5.97898997 0 7 C-0.38133299 5.0085944 -0.71325582 3.00720923 -1 1 C-0.67 0.67 -0.34 0.34 0 0 Z " fill="#262722" transform="translate(310,308)"/>
<path d="M0 0 C0.66 0.33 1.32 0.66 2 1 C-0.625 5.875 -0.625 5.875 -4 7 C-4.33 6.34 -4.66 5.68 -5 5 C-3.35 3.35 -1.7 1.7 0 0 Z " fill="#292415" transform="translate(288,274)"/>
<path d="M0 0 C0.99 0.33 1.98 0.66 3 1 C2.67 2.32 2.34 3.64 2 5 C0.68 4.67 -0.64 4.34 -2 4 C-2 3.01 -2 2.02 -2 1 C-1.34 0.67 -0.68 0.34 0 0 Z " fill="#1F1A0F" transform="translate(165,274)"/>
<path d="M0 0 C2.64 0.33 5.28 0.66 8 1 C4.73454239 2.88391785 1.71888239 3.49287967 -2 4 C-1.34 3.67 -0.68 3.34 0 3 C0 2.01 0 1.02 0 0 Z " fill="#34322D" transform="translate(201,235)"/>
<path d="M0 0 C1.9375 0.3125 1.9375 0.3125 4 1 C4.33 1.99 4.66 2.98 5 4 C5.99 4.66 6.98 5.32 8 6 C4.62537285 5.45276317 2.91765 4.9451 0 3 C0 2.01 0 1.02 0 0 Z " fill="#363328" transform="translate(251,314)"/>
<path d="M0 0 C1.65 0.33 3.3 0.66 5 1 C2.31158141 3.25245881 0.35358125 4.88213958 -3 6 C-2 4 -1 2 0 0 Z " fill="#27231D" transform="translate(193,312)"/>
<path d="M0 0 C0.66 0.33 1.32 0.66 2 1 C2 1.66 2 2.32 2 3 C2.66 3 3.32 3 4 3 C3.67 3.99 3.34 4.98 3 6 C2.01 6.33 1.02 6.66 0 7 C-1.125 2.25 -1.125 2.25 0 0 Z " fill="#3F3C30" transform="translate(110,305)"/>
<path d="M0 0 C0.61875 0.78375 1.2375 1.5675 1.875 2.375 C3.89858661 4.96837647 3.89858661 4.96837647 6 7 C4.68 7.33 3.36 7.66 2 8 C0.23537317 4.91190305 0 3.76687864 0 0 Z " fill="#332F24" transform="translate(169,301)"/>
<path d="M0 0 C0.99 0.33 1.98 0.66 3 1 C1.515 4.465 1.515 4.465 0 8 C-1.4606285 5.35261084 -2 4.10551666 -2 1 C-1.34 0.67 -0.68 0.34 0 0 Z " fill="#211E1F" transform="translate(82,217)"/>
<path d="M0 0 C1.875 0.3125 1.875 0.3125 4 1 C4.66 1.99 5.32 2.98 6 4 C4.02 4.33 2.04 4.66 0 5 C0 3.35 0 1.7 0 0 Z " fill="#1C1B1D" transform="translate(157,212)"/>
<path d="M0 0 C0 0.99 0 1.98 0 3 C-5.75 4.125 -5.75 4.125 -8 3 C-5.08235 1.0549 -3.37462715 0.54723683 0 0 Z " fill="#3B3424" transform="translate(303,188)"/>
<path d="M0 0 C0.33 0.66 0.66 1.32 1 2 C3.02463255 2.65213292 3.02463255 2.65213292 5 3 C4.67 3.66 4.34 4.32 4 5 C2.35 5 0.7 5 -1 5 C-0.67 3.35 -0.34 1.7 0 0 Z " fill="#191917" transform="translate(274,131)"/>
<path d="M0 0 C0.99 0.33 1.98 0.66 3 1 C1.38405168 3.04119788 -0.2856382 5.04072937 -2 7 C-2.66 7 -3.32 7 -4 7 C-2.79618552 4.50638429 -1.54571278 2.31856917 0 0 Z " fill="#353120" transform="translate(65,266)"/>
<path d="M0 0 C1.5625 1.8125 1.5625 1.8125 3 4 C2.67 4.99 2.34 5.98 2 7 C1.01 7 0.02 7 -1 7 C-0.67 4.69 -0.34 2.38 0 0 Z " fill="#080300" transform="translate(130,265)"/>
<path d="M0 0 C0.66 0.33 1.32 0.66 2 1 C1.67 4.3 1.34 7.6 1 11 C0.67 11 0.34 11 0 11 C-0.19406478 9.35492782 -0.38007935 7.70890406 -0.5625 6.0625 C-0.66691406 5.14597656 -0.77132813 4.22945312 -0.87890625 3.28515625 C-0.91886719 2.53105469 -0.95882813 1.77695313 -1 1 C-0.67 0.67 -0.34 0.34 0 0 Z " fill="#302D2A" transform="translate(269,219)"/>
<path d="M0 0 C1.485 0.99 1.485 0.99 3 2 C2.67 3.65 2.34 5.3 2 7 C1.34 7 0.68 7 0 7 C-0.33 7.66 -0.66 8.32 -1 9 C-0.67 6.03 -0.34 3.06 0 0 Z " fill="#383227" transform="translate(224,201)"/>
<path d="M0 0 C1.32 0.99 2.64 1.98 4 3 C2.68 3.99 1.36 4.98 0 6 C-0.66 5.67 -1.32 5.34 -2 5 C-1.34 3.35 -0.68 1.7 0 0 Z " fill="#1A150F" transform="translate(268,81)"/>
</svg>
